<svg width="512" height="512" version="1.1" xmlns="http://www.w3.org/2000/svg" desc="Created with imagetracer.js version 1.2.6" ><path fill="rgb(37,40,54)" stroke="rgb(37,40,54)" stroke-width="1" opacity="1" d="M 0 0 L 512 0 L 512 512 L 0 512 L 0 0 Z M 194 178 L 179 181 L 168 185 L 148 197 Q 126 213 121 245 L 121 268 L 124 282 Q 128 295 136 305 Q 146 316 159 324 L 183 334 L 196 335 L 197 336 L 218 334 L 235 328 L 245 322 L 252 315 L 253 312 Q 252 301 246 295 L 236 286 L 230 287 L 215 296 L 207 298 Q 183 300 173 289 Q 161 280 158 264 L 159 246 Q 162 235 168 229 Q 175 222 185 218 L 197 215 L 204 215 L 217 218 L 232 227 Q 239 228 242 224 Q 250 218 253 207 Q 254 200 251 198 Q 232 178 194 178 Z M 332 178 L 317 181 L 309 184 Q 294 190 284 199 L 270 215 L 262 233 L 259 248 L 259 264 L 262 280 Q 267 295 276 307 Q 287 318 301 326 L 318 333 L 335 336 L 344 336 L 360 333 Q 375 329 386 320 L 391 314 L 391 307 L 389 302 L 382 292 L 375 286 L 371 286 L 356 295 L 346 298 L 327 297 Q 316 293 309 287 L 300 276 L 296 260 L 297 247 L 304 232 L 315 222 L 323 218 L 335 215 L 349 216 L 355 218 L 370 227 Q 376 228 379 225 Q 387 219 391 209 Q 392 202 390 199 Q 372 177 332 178 Z " /><path fill="rgb(233,234,235)" stroke="rgb(233,234,235)" stroke-width="1" opacity="1" d="M 193.5 178 L 208 178.5 L 193.5 179 L 193.5 178 Z " /><path fill="rgb(233,234,235)" stroke="rgb(233,234,235)" stroke-width="1" opacity="1" d="M 331.5 178 L 347 178.5 L 331.5 179 L 331.5 178 Z " /><path fill="rgb(233,234,235)" stroke="rgb(233,234,235)" stroke-width="1" opacity="1" d="M 186.5 179 L 189 179.5 L 186.5 180 L 186.5 179 Z " /><path fill="rgb(233,234,235)" stroke="rgb(233,234,235)" stroke-width="1" opacity="1" d="M 211.5 179 L 214 179.5 L 211.5 180 L 211.5 179 Z " /><path fill="rgb(233,234,235)" stroke="rgb(233,234,235)" stroke-width="1" opacity="1" d="M 325.5 179 L 328 179.5 L 325.5 180 L 325.5 179 Z " /><path fill="rgb(233,234,235)" stroke="rgb(233,234,235)" stroke-width="1" opacity="1" d="M 350.5 179 L 353 179.5 L 350.5 180 L 350.5 179 Z " /><path fill="rgb(233,234,235)" stroke="rgb(233,234,235)" stroke-width="1" opacity="1" d="M 216.5 180 L 219 180.5 L 216.5 181 L 216.5 180 Z " /><path fill="rgb(233,234,235)" stroke="rgb(233,234,235)" stroke-width="1" opacity="1" d="M 320.5 180 L 323 180.5 L 320.5 181 L 320.5 180 Z " /><path fill="rgb(233,234,235)" stroke="rgb(233,234,235)" stroke-width="1" opacity="1" d="M 316.5 181 L 319 181.5 L 316.5 182 L 316.5 181 Z " /><path fill="rgb(233,234,235)" stroke="rgb(233,234,235)" stroke-width="1" opacity="1" d="M 167.5 185 L 169 185.5 L 165.5 187 L 165.5 186 L 167.5 185 Z " /><path fill="rgb(233,234,235)" stroke="rgb(233,234,235)" stroke-width="1" opacity="1" d="M 236.5 187 L 240 189.5 L 238.5 189 L 236.5 187 Z " /><path fill="rgb(233,234,235)" stroke="rgb(233,234,235)" stroke-width="1" opacity="1" d="M 161.5 188 L 160.5 190 L 158.5 191 L 159.5 189 L 161.5 188 Z " /><path fill="rgb(233,234,235)" stroke="rgb(233,234,235)" stroke-width="1" opacity="1" d="M 378.5 189 L 379.5 191 L 378.5 189 Z " /><path fill="rgb(233,234,235)" stroke="rgb(233,234,235)" stroke-width="1" opacity="1" d="M 243.5 191 L 244.5 193 L 243.5 191 Z " /><path fill="rgb(233,234,235)" stroke="rgb(233,234,235)" stroke-width="1" opacity="1" d="M 294.5 191 L 293.5 193 L 294.5 191 Z " /><path fill="rgb(233,234,235)" stroke="rgb(233,234,235)" stroke-width="1" opacity="1" d="M 154.5 192 L 153.5 194 L 154.5 192 Z " /><path fill="rgb(233,234,235)" stroke="rgb(233,234,235)" stroke-width="1" opacity="1" d="M 383.5 192 L 384.5 194 L 383.5 192 Z " /><path fill="rgb(233,234,235)" stroke="rgb(233,234,235)" stroke-width="1" opacity="1" d="M 246.5 193 L 250.5 198 L 246.5 193 Z " /><path fill="rgb(233,234,235)" stroke="rgb(233,234,235)" stroke-width="1" opacity="1" d="M 291.5 193 L 290.5 195 L 291.5 193 Z " /><path fill="rgb(233,234,235)" stroke="rgb(233,234,235)" stroke-width="1" opacity="1" d="M 151.5 194 L 150.5 196 L 151.5 194 Z " /><path fill="rgb(233,234,235)" stroke="rgb(233,234,235)" stroke-width="1" opacity="1" d="M 288.5 195 L 286.5 198 L 288.5 195 Z " /><path fill="rgb(233,234,235)" stroke="rgb(233,234,235)" stroke-width="1" opacity="1" d="M 147.5 197 L 144.5 201 L 147.5 197 Z " /><path fill="rgb(233,234,235)" stroke="rgb(233,234,235)" stroke-width="1" opacity="1" d="M 283.5 199 L 275.5 208 L 283.5 199 Z " /><path fill="rgb(233,234,235)" stroke="rgb(233,234,235)" stroke-width="1" opacity="1" d="M 252.5 201 L 253 206.5 L 252 206.5 L 252.5 201 Z " /><path fill="rgb(233,234,235)" stroke="rgb(233,234,235)" stroke-width="1" opacity="1" d="M 138.5 206 L 135.5 210 L 138.5 206 Z " /><path fill="rgb(233,234,235)" stroke="rgb(233,234,235)" stroke-width="1" opacity="1" d="M 273.5 210 L 272.5 212 L 273.5 210 Z " /><path fill="rgb(233,234,235)" stroke="rgb(233,234,235)" stroke-width="1" opacity="1" d="M 134.5 211 L 133.5 213 L 134.5 211 Z " /><path fill="rgb(233,234,235)" stroke="rgb(233,234,235)" stroke-width="1" opacity="1" d="M 271.5 213 L 270.5 215 L 271.5 213 Z " /><path fill="rgb(233,234,235)" stroke="rgb(233,234,235)" stroke-width="1" opacity="1" d="M 132.5 214 L 131.5 216 L 132.5 214 Z " /><path fill="rgb(233,234,235)" stroke="rgb(233,234,235)" stroke-width="1" opacity="1" d="M 387.5 214 L 386.5 216 L 387.5 214 Z " /><path fill="rgb(233,234,235)" stroke="rgb(233,234,235)" stroke-width="1" opacity="1" d="M 192.5 215 L 196 215.5 L 192.5 216 L 192.5 215 Z " /><path fill="rgb(233,234,235)" stroke="rgb(233,234,235)" stroke-width="1" opacity="1" d="M 204.5 215 L 208 215.5 L 204.5 216 L 204.5 215 Z " /><path fill="rgb(233,234,235)" stroke="rgb(233,234,235)" stroke-width="1" opacity="1" d="M 248.5 215 L 246.5 218 L 248.5 215 Z " /><path fill="rgb(233,234,235)" stroke="rgb(233,234,235)" stroke-width="1" opacity="1" d="M 330.5 215 L 334 215.5 L 330.5 216 L 330.5 215 Z " /><path fill="rgb(233,234,235)" stroke="rgb(233,234,235)" stroke-width="1" opacity="1" d="M 342.5 215 L 347 215.5 L 342.5 216 L 342.5 215 Z " /><path fill="rgb(233,234,235)" stroke="rgb(233,234,235)" stroke-width="1" opacity="1" d="M 210.5 216 L 213 216.5 L 210.5 217 L 210.5 216 Z " /><path fill="rgb(233,234,235)" stroke="rgb(233,234,235)" stroke-width="1" opacity="1" d="M 385.5 217 L 378.5 225 L 385.5 217 Z " /><path fill="rgb(233,234,235)" stroke="rgb(233,234,235)" stroke-width="1" opacity="1" d="M 182.5 218 L 184 218.5 L 177.5 222 L 178.5 220 L 182.5 218 Z " /><path fill="rgb(233,234,235)" stroke="rgb(233,234,235)" stroke-width="1" opacity="1" d="M 219.5 219 L 220.5 221 L 219.5 219 Z " /><path fill="rgb(233,234,235)" stroke="rgb(233,234,235)" stroke-width="1" opacity="1" d="M 245.5 219 L 241.5 224 L 245.5 219 Z " /><path fill="rgb(233,234,235)" stroke="rgb(233,234,235)" stroke-width="1" opacity="1" d="M 359.5 220 L 360.5 222 L 359.5 220 Z " /><path fill="rgb(233,234,235)" stroke="rgb(233,234,235)" stroke-width="1" opacity="1" d="M 222.5 221 L 223.5 223 L 222.5 221 Z " /><path fill="rgb(233,234,235)" stroke="rgb(233,234,235)" stroke-width="1" opacity="1" d="M 313.5 222 L 312.5 224 L 313.5 222 Z " /><path fill="rgb(233,234,235)" stroke="rgb(233,234,235)" stroke-width="1" opacity="1" d="M 362.5 222 L 363.5 224 L 362.5 222 Z " /><path fill="rgb(233,234,235)" stroke="rgb(233,234,235)" stroke-width="1" opacity="1" d="M 225.5 223 L 226.5 225 L 225.5 223 Z " /><path fill="rgb(233,234,235)" stroke="rgb(233,234,235)" stroke-width="1" opacity="1" d="M 172.5 224 L 170.5 227 L 172.5 224 Z " /><path fill="rgb(233,234,235)" stroke="rgb(233,234,235)" stroke-width="1" opacity="1" d="M 239.5 224 L 238.5 226 L 239.5 224 Z " /><path fill="rgb(233,234,235)" stroke="rgb(233,234,235)" stroke-width="1" opacity="1" d="M 309.5 225 L 305.5 230 L 309.5 225 Z " /><path fill="rgb(233,234,235)" stroke="rgb(233,234,235)" stroke-width="1" opacity="1" d="M 231.5 226 L 237 226.5 L 231.5 227 L 231.5 226 Z " /><path fill="rgb(233,234,235)" stroke="rgb(233,234,235)" stroke-width="1" opacity="1" d="M 369.5 226 L 375 226.5 L 369.5 227 L 369.5 226 Z " /><path fill="rgb(233,234,235)" stroke="rgb(233,234,235)" stroke-width="1" opacity="1" d="M 167.5 229 L 165.5 232 L 167.5 229 Z " /><path fill="rgb(233,234,235)" stroke="rgb(233,234,235)" stroke-width="1" opacity="1" d="M 303.5 232 L 302.5 234 L 303.5 232 Z " /><path fill="rgb(233,234,235)" stroke="rgb(233,234,235)" stroke-width="1" opacity="1" d="M 164.5 233 L 163.5 235 L 164.5 233 Z " /><path fill="rgb(233,234,235)" stroke="rgb(233,234,235)" stroke-width="1" opacity="1" d="M 122.5 238 L 123 240.5 L 122 240.5 L 122.5 238 Z " /><path fill="rgb(233,234,235)" stroke="rgb(233,234,235)" stroke-width="1" opacity="1" d="M 260.5 240 L 261 243.5 L 260 243.5 L 260.5 240 Z " /><path fill="rgb(233,234,235)" stroke="rgb(233,234,235)" stroke-width="1" opacity="1" d="M 121.5 244 L 122 248.5 L 121 248.5 L 121.5 244 Z " /><path fill="rgb(233,234,235)" stroke="rgb(233,234,235)" stroke-width="1" opacity="1" d="M 158.5 247 L 159 249.5 L 158 249.5 L 158.5 247 Z " /><path fill="rgb(233,234,235)" stroke="rgb(233,234,235)" stroke-width="1" opacity="1" d="M 259.5 247 L 260 263.5 L 259 263.5 L 259.5 247 Z " /><path fill="rgb(233,234,235)" stroke="rgb(233,234,235)" stroke-width="1" opacity="1" d="M 296.5 249 L 297 253.5 L 296 253.5 L 296.5 249 Z " /><path fill="rgb(233,234,235)" stroke="rgb(233,234,235)" stroke-width="1" opacity="1" d="M 157.5 254 L 158 259.5 L 157 259.5 L 157.5 254 Z " /><path fill="rgb(233,234,235)" stroke="rgb(233,234,235)" stroke-width="1" opacity="1" d="M 296.5 260 L 297 264.5 L 296 264.5 L 296.5 260 Z " /><path fill="rgb(233,234,235)" stroke="rgb(233,234,235)" stroke-width="1" opacity="1" d="M 121.5 262 L 122 267.5 L 121 267.5 L 121.5 262 Z " /><path fill="rgb(233,234,235)" stroke="rgb(233,234,235)" stroke-width="1" opacity="1" d="M 158.5 264 L 159 266.5 L 158 266.5 L 158.5 264 Z " /><path fill="rgb(233,234,235)" stroke="rgb(233,234,235)" stroke-width="1" opacity="1" d="M 260.5 268 L 261 271.5 L 260 271.5 L 260.5 268 Z " /><path fill="rgb(233,234,235)" stroke="rgb(233,234,235)" stroke-width="1" opacity="1" d="M 122.5 271 L 123 273.5 L 122 273.5 L 122.5 271 Z " /><path fill="rgb(233,234,235)" stroke="rgb(233,234,235)" stroke-width="1" opacity="1" d="M 161.5 274 L 164 278.5 L 162 277.5 L 161.5 274 Z " /><path fill="rgb(233,234,235)" stroke="rgb(233,234,235)" stroke-width="1" opacity="1" d="M 300.5 276 L 303 279.5 L 301 278.5 L 300.5 276 Z " /><path fill="rgb(233,234,235)" stroke="rgb(233,234,235)" stroke-width="1" opacity="1" d="M 164.5 280 L 165.5 282 L 164.5 280 Z " /><path fill="rgb(233,234,235)" stroke="rgb(233,234,235)" stroke-width="1" opacity="1" d="M 303.5 281 L 305.5 284 L 303.5 281 Z " /><path fill="rgb(233,234,235)" stroke="rgb(233,234,235)" stroke-width="1" opacity="1" d="M 166.5 283 L 171.5 289 L 166.5 283 Z " /><path fill="rgb(233,234,235)" stroke="rgb(233,234,235)" stroke-width="1" opacity="1" d="M 232.5 286 L 236 286.5 L 232.5 287 L 232.5 286 Z " /><path fill="rgb(233,234,235)" stroke="rgb(233,234,235)" stroke-width="1" opacity="1" d="M 370.5 286 L 375 286.5 L 370.5 287 L 370.5 286 Z " /><path fill="rgb(233,234,235)" stroke="rgb(233,234,235)" stroke-width="1" opacity="1" d="M 229.5 287 L 231 287.5 L 224.5 291 L 225.5 289 L 229.5 287 Z " /><path fill="rgb(233,234,235)" stroke="rgb(233,234,235)" stroke-width="1" opacity="1" d="M 309.5 287 L 311.5 290 L 309.5 287 Z " /><path fill="rgb(233,234,235)" stroke="rgb(233,234,235)" stroke-width="1" opacity="1" d="M 376.5 287 L 377.5 289 L 376.5 287 Z " /><path fill="rgb(233,234,235)" stroke="rgb(233,234,235)" stroke-width="1" opacity="1" d="M 239.5 288 L 245.5 295 L 239.5 288 Z " /><path fill="rgb(233,234,235)" stroke="rgb(233,234,235)" stroke-width="1" opacity="1" d="M 173.5 289 L 174.5 291 L 173.5 289 Z " /><path fill="rgb(233,234,235)" stroke="rgb(233,234,235)" stroke-width="1" opacity="1" d="M 266.5 289 L 270 295.5 L 268 294.5 L 266.5 289 Z " /><path fill="rgb(233,234,235)" stroke="rgb(233,234,235)" stroke-width="1" opacity="1" d="M 379.5 289 L 381.5 292 L 379.5 289 Z " /><path fill="rgb(233,234,235)" stroke="rgb(233,234,235)" stroke-width="1" opacity="1" d="M 128.5 290 L 131 294.5 L 129 293.5 L 128.5 290 Z " /><path fill="rgb(233,234,235)" stroke="rgb(233,234,235)" stroke-width="1" opacity="1" d="M 313.5 290 L 314.5 292 L 313.5 290 Z " /><path fill="rgb(233,234,235)" stroke="rgb(233,234,235)" stroke-width="1" opacity="1" d="M 362.5 290 L 361.5 292 L 362.5 290 Z " /><path fill="rgb(233,234,235)" stroke="rgb(233,234,235)" stroke-width="1" opacity="1" d="M 176.5 291 L 177.5 293 L 176.5 291 Z " /><path fill="rgb(233,234,235)" stroke="rgb(233,234,235)" stroke-width="1" opacity="1" d="M 222.5 291 L 221.5 293 L 222.5 291 Z " /><path fill="rgb(233,234,235)" stroke="rgb(233,234,235)" stroke-width="1" opacity="1" d="M 359.5 292 L 358.5 294 L 359.5 292 Z " /><path fill="rgb(233,234,235)" stroke="rgb(233,234,235)" stroke-width="1" opacity="1" d="M 219.5 293 L 218.5 295 L 217 294.5 L 219.5 293 Z " /><path fill="rgb(233,234,235)" stroke="rgb(233,234,235)" stroke-width="1" opacity="1" d="M 318.5 293 L 321 294.5 L 319.5 295 L 318.5 293 Z " /><path fill="rgb(233,234,235)" stroke="rgb(233,234,235)" stroke-width="1" opacity="1" d="M 383.5 294 L 385.5 297 L 383.5 294 Z " /><path fill="rgb(233,234,235)" stroke="rgb(233,234,235)" stroke-width="1" opacity="1" d="M 246.5 296 L 247.5 298 L 246.5 296 Z " /><path fill="rgb(233,234,235)" stroke="rgb(233,234,235)" stroke-width="1" opacity="1" d="M 189.5 297 L 192 297.5 L 189.5 298 L 189.5 297 Z " /><path fill="rgb(233,234,235)" stroke="rgb(233,234,235)" stroke-width="1" opacity="1" d="M 207.5 297 L 210 297.5 L 207.5 298 L 207.5 297 Z " /><path fill="rgb(233,234,235)" stroke="rgb(233,234,235)" stroke-width="1" opacity="1" d="M 328.5 297 L 331 297.5 L 328.5 298 L 328.5 297 Z " /><path fill="rgb(233,234,235)" stroke="rgb(233,234,235)" stroke-width="1" opacity="1" d="M 346.5 297 L 349 297.5 L 346.5 298 L 346.5 297 Z " /><path fill="rgb(233,234,235)" stroke="rgb(233,234,235)" stroke-width="1" opacity="1" d="M 132.5 298 L 133.5 300 L 132.5 298 Z " /><path fill="rgb(233,234,235)" stroke="rgb(233,234,235)" stroke-width="1" opacity="1" d="M 195.5 298 L 204 298.5 L 195.5 299 L 195.5 298 Z " /><path fill="rgb(233,234,235)" stroke="rgb(233,234,235)" stroke-width="1" opacity="1" d="M 334.5 298 L 343 298.5 L 334.5 299 L 334.5 298 Z " /><path fill="rgb(233,234,235)" stroke="rgb(233,234,235)" stroke-width="1" opacity="1" d="M 248.5 299 L 251 303.5 L 250 303.5 L 248.5 299 Z " /><path fill="rgb(233,234,235)" stroke="rgb(233,234,235)" stroke-width="1" opacity="1" d="M 271.5 299 L 272.5 301 L 271.5 299 Z " /><path fill="rgb(233,234,235)" stroke="rgb(233,234,235)" stroke-width="1" opacity="1" d="M 387.5 300 L 389 302.5 L 388 302.5 L 387.5 300 Z " /><path fill="rgb(233,234,235)" stroke="rgb(233,234,235)" stroke-width="1" opacity="1" d="M 134.5 301 L 135.5 303 L 134.5 301 Z " /><path fill="rgb(233,234,235)" stroke="rgb(233,234,235)" stroke-width="1" opacity="1" d="M 273.5 302 L 275.5 305 L 273.5 302 Z " /><path fill="rgb(233,234,235)" stroke="rgb(233,234,235)" stroke-width="1" opacity="1" d="M 136.5 304 L 140.5 309 L 136.5 304 Z " /><path fill="rgb(233,234,235)" stroke="rgb(233,234,235)" stroke-width="1" opacity="1" d="M 276.5 306 L 283.5 314 L 276.5 306 Z " /><path fill="rgb(233,234,235)" stroke="rgb(233,234,235)" stroke-width="1" opacity="1" d="M 390.5 306 L 391 308.5 L 390 308.5 L 390.5 306 Z " /><path fill="rgb(233,234,235)" stroke="rgb(233,234,235)" stroke-width="1" opacity="1" d="M 252.5 308 L 253 311.5 L 252 311.5 L 252.5 308 Z " /><path fill="rgb(233,234,235)" stroke="rgb(233,234,235)" stroke-width="1" opacity="1" d="M 143.5 311 L 147.5 316 L 143.5 311 Z " /><path fill="rgb(233,234,235)" stroke="rgb(233,234,235)" stroke-width="1" opacity="1" d="M 390.5 311 L 391 313.5 L 389 314.5 L 390.5 311 Z " /><path fill="rgb(233,234,235)" stroke="rgb(233,234,235)" stroke-width="1" opacity="1" d="M 251.5 313 L 252 314.5 L 250 315.5 L 251.5 313 Z " /><path fill="rgb(233,234,235)" stroke="rgb(233,234,235)" stroke-width="1" opacity="1" d="M 286.5 315 L 288.5 318 L 286.5 315 Z " /><path fill="rgb(233,234,235)" stroke="rgb(233,234,235)" stroke-width="1" opacity="1" d="M 388.5 316 L 385.5 320 L 388.5 316 Z " /><path fill="rgb(233,234,235)" stroke="rgb(233,234,235)" stroke-width="1" opacity="1" d="M 150.5 317 L 152.5 320 L 150.5 317 Z " /><path fill="rgb(233,234,235)" stroke="rgb(233,234,235)" stroke-width="1" opacity="1" d="M 246.5 319 L 244.5 322 L 246.5 319 Z " /><path fill="rgb(233,234,235)" stroke="rgb(233,234,235)" stroke-width="1" opacity="1" d="M 291.5 319 L 292.5 321 L 291.5 319 Z " /><path fill="rgb(233,234,235)" stroke="rgb(233,234,235)" stroke-width="1" opacity="1" d="M 154.5 320 L 155.5 322 L 154.5 320 Z " /><path fill="rgb(233,234,235)" stroke="rgb(233,234,235)" stroke-width="1" opacity="1" d="M 294.5 321 L 295.5 323 L 294.5 321 Z " /><path fill="rgb(233,234,235)" stroke="rgb(233,234,235)" stroke-width="1" opacity="1" d="M 157.5 322 L 158.5 324 L 157.5 322 Z " /><path fill="rgb(233,234,235)" stroke="rgb(233,234,235)" stroke-width="1" opacity="1" d="M 380.5 322 L 379.5 324 L 380.5 322 Z " /><path fill="rgb(233,234,235)" stroke="rgb(233,234,235)" stroke-width="1" opacity="1" d="M 240.5 323 L 239.5 325 L 240.5 323 Z " /><path fill="rgb(233,234,235)" stroke="rgb(233,234,235)" stroke-width="1" opacity="1" d="M 299.5 324 L 306 327.5 L 304.5 328 Q 299.9 326.8 299.5 324 Z " /><path fill="rgb(233,234,235)" stroke="rgb(233,234,235)" stroke-width="1" opacity="1" d="M 375.5 325 L 374.5 327 L 375.5 325 Z " /><path fill="rgb(233,234,235)" stroke="rgb(233,234,235)" stroke-width="1" opacity="1" d="M 235.5 326 L 234.5 328 L 233 327.5 L 235.5 326 Z " /><path fill="rgb(233,234,235)" stroke="rgb(233,234,235)" stroke-width="1" opacity="1" d="M 168.5 328 L 172 329.5 L 170.5 330 L 168.5 328 Z " /><path fill="rgb(233,234,235)" stroke="rgb(233,234,235)" stroke-width="1" opacity="1" d="M 357.5 332 L 360 332.5 L 357.5 333 L 357.5 332 Z " /><path fill="rgb(233,234,235)" stroke="rgb(233,234,235)" stroke-width="1" opacity="1" d="M 182.5 333 L 185 333.5 L 182.5 334 L 182.5 333 Z " /><path fill="rgb(233,234,235)" stroke="rgb(233,234,235)" stroke-width="1" opacity="1" d="M 215.5 333 L 218 333.5 L 215.5 334 L 215.5 333 Z " /><path fill="rgb(233,234,235)" stroke="rgb(233,234,235)" stroke-width="1" opacity="1" d="M 321.5 333 L 324 333.5 L 321.5 334 L 321.5 333 Z " /><path fill="rgb(233,234,235)" stroke="rgb(233,234,235)" stroke-width="1" opacity="1" d="M 353.5 333 L 356 333.5 L 353.5 334 L 353.5 333 Z " /><path fill="rgb(233,234,235)" stroke="rgb(233,234,235)" stroke-width="1" opacity="1" d="M 187.5 334 L 191 334.5 L 187.5 335 L 187.5 334 Z " /><path fill="rgb(233,234,235)" stroke="rgb(233,234,235)" stroke-width="1" opacity="1" d="M 209.5 334 L 213 334.5 L 209.5 335 L 209.5 334 Z " /><path fill="rgb(233,234,235)" stroke="rgb(233,234,235)" stroke-width="1" opacity="1" d="M 326.5 334 L 330 334.5 L 326.5 335 L 326.5 334 Z " /><path fill="rgb(233,234,235)" stroke="rgb(233,234,235)" stroke-width="1" opacity="1" d="M 348.5 334 L 351 334.5 L 348.5 335 L 348.5 334 Z " /><path fill="rgb(233,234,235)" stroke="rgb(233,234,235)" stroke-width="1" opacity="1" d="M 196.5 335 L 205 335.5 L 196.5 336 L 196.5 335 Z " /><path fill="rgb(233,234,235)" stroke="rgb(233,234,235)" stroke-width="1" opacity="1" d="M 334.5 335 L 344 335.5 L 334.5 336 L 334.5 335 Z " /><path fill="rgb(254,254,254)" stroke="rgb(254,254,254)" stroke-width="1" opacity="1" d="M 189.5 179 L 191.5 180 L 209.5 180 L 211 179.5 L 210.5 181 L 215 181.5 L 210.5 182 L 209.5 181 L 191.5 181 Q 156.4 186.9 138 209.5 Q 127.5 222 124.5 242 L 123 236.5 L 125 236.5 L 127 229.5 Q 124.5 228 128 226.5 L 127 224.5 L 129 224.5 L 128 222.5 L 130 222 L 131 219.5 L 130.5 218 L 132 217.5 L 131.5 216 Q 133.8 216.8 133 214.5 L 140 206.5 L 139 205.5 L 143.5 201 L 144.5 202 L 148.5 198 L 150 197.5 L 149.5 196 Q 151 198.5 152.5 195 L 155 193.5 L 155.5 192 L 157.5 192 L 163 189.5 L 162.5 188 L 164.5 189 L 164.5 187 L 166.5 188 L 172 185.5 L 171.5 184 L 173.5 185 L 181 182.5 L 180.5 181 L 184.5 182 L 184.5 180 Q 185.8 182.3 190.5 181 L 190.5 180 L 189.5 179 Z " /><path fill="rgb(254,254,254)" stroke="rgb(254,254,254)" stroke-width="1" opacity="1" d="M 330.5 180 L 348 180.5 L 330.5 181 L 330.5 180 Z " /><path fill="rgb(254,254,254)" stroke="rgb(254,254,254)" stroke-width="1" opacity="1" d="M 354.5 180 L 354.5 182 L 360.5 183 L 362 182.5 L 361.5 184 L 364.5 183 L 364.5 185 L 367.5 184 L 367.5 186 L 376.5 190 L 378 189.5 L 377.5 191 L 381.5 193 L 383 192.5 L 382.5 194 L 384.5 195 L 386 194.5 L 385.5 196 L 389 197.5 L 389 199.5 L 388.5 203 Q 387.6 197.4 383.5 195 Q 369.9 184.6 349 181.5 L 354.5 180 Z " /><path fill="rgb(254,254,254)" stroke="rgb(254,254,254)" stroke-width="1" opacity="1" d="M 219.5 181 L 219.5 183 L 230.5 186 L 232 185.5 L 231.5 187 L 233 187.5 L 231.5 188 L 216 182.5 L 219.5 181 Z " /><path fill="rgb(254,254,254)" stroke="rgb(254,254,254)" stroke-width="1" opacity="1" d="M 324.5 181 L 329 181.5 L 324.5 182 L 324.5 181 Z " /><path fill="rgb(254,254,254)" stroke="rgb(254,254,254)" stroke-width="1" opacity="1" d="M 315.5 182 L 318.5 183 L 322.5 182 L 322.5 183 Q 294.1 189.1 278 207.5 Q 268.7 218.2 264.5 234 Q 261.3 232.3 265 230.5 L 266 226.5 L 265.5 225 L 267 225.5 L 266 223.5 L 270 218.5 L 269.5 217 L 271 216.5 L 270.5 215 L 273 213.5 L 275 210.5 L 274.5 209 L 285 199.5 L 285.5 198 L 286.5 199 L 289.5 196 L 296 192.5 L 295.5 191 L 297.5 191 L 308 186.5 L 307.5 185 L 309.5 186 L 313 184.5 L 312.5 183 L 315.5 184 L 315.5 182 Z " /><path fill="rgb(254,254,254)" stroke="rgb(254,254,254)" stroke-width="1" opacity="1" d="M 236.5 189 L 241.5 192 L 243 191.5 L 242.5 193 L 244.5 194 L 246 193.5 L 251 199.5 L 251 207.5 L 252 208.5 L 248 213.5 L 248.5 215 L 245 217.5 L 245.5 219 L 237 224.5 L 237.5 226 L 228.5 224 L 227 224.5 L 227.5 223 L 215.5 216 L 210 214.5 L 212.5 214 L 230.5 224 L 236.5 224 L 243 219.5 L 249 209 L 251 208.5 Q 248.3 206.8 250 200.5 L 245.5 195 L 237.5 191 L 236.5 189 Z " /><path fill="rgb(254,254,254)" stroke="rgb(254,254,254)" stroke-width="1" opacity="1" d="M 388.5 205 L 389 210.5 L 377.5 224 L 369.5 225 L 369.5 224 L 375.5 224 L 383 217.5 L 388 209.5 L 388.5 205 Z " /><path fill="rgb(254,254,254)" stroke="rgb(254,254,254)" stroke-width="1" opacity="1" d="M 191.5 213 L 199 213.5 L 191 214.5 L 191.5 216 L 187.5 215 L 187.5 217 L 184.5 216 L 184.5 218 L 182.5 217 L 176 220.5 L 176.5 222 L 174.5 222 L 173 222.5 L 173.5 224 L 172.5 223 L 169 226.5 Q 169.8 228.8 167.5 228 Q 162.7 230.5 164.5 233 Q 162.3 232.3 163 234.5 L 159 241.5 L 159.5 243 L 158 242.5 L 159 246.5 L 157 246.5 L 158 253.5 L 157 253.5 L 156.5 251 L 155.5 262 L 155 251.5 Q 158.1 233.6 169.5 224 Q 178.3 216.3 191.5 213 Z " /><path fill="rgb(254,254,254)" stroke="rgb(254,254,254)" stroke-width="1" opacity="1" d="M 200.5 213 L 209 213.5 L 200.5 214 L 200.5 213 Z " /><path fill="rgb(254,254,254)" stroke="rgb(254,254,254)" stroke-width="1" opacity="1" d="M 329.5 213 L 337 213.5 L 329 214.5 L 329.5 216 L 326.5 215 L 321.5 217 L 321.5 216 L 329.5 213 Z " /><path fill="rgb(254,254,254)" stroke="rgb(254,254,254)" stroke-width="1" opacity="1" d="M 339.5 213 L 347.5 213 L 356 216.5 L 354.5 217 L 352.5 216 L 351 216.5 L 351.5 215 L 347.5 216 L 347.5 214 L 339.5 214 L 339.5 213 Z " /><path fill="rgb(254,254,254)" stroke="rgb(254,254,254)" stroke-width="1" opacity="1" d="M 318.5 217 L 320 217.5 L 318 218.5 L 318.5 220 L 316.5 220 L 310 223.5 L 310.5 225 L 309.5 224 L 304 229.5 L 304.5 231 L 302 232.5 L 300 235.5 L 300.5 237 L 299 237.5 L 300 238.5 L 297 241.5 L 296 246.5 L 297 248.5 L 296 248.5 L 295.5 247 L 295 265.5 L 297 265.5 L 296 269.5 L 298 269.5 L 296.5 272 L 294 265.5 L 294 247.5 Q 298.1 230.6 310.5 222 L 318.5 217 Z " /><path fill="rgb(254,254,254)" stroke="rgb(254,254,254)" stroke-width="1" opacity="1" d="M 357.5 217 L 368 223.5 L 366.5 224 L 358.5 219 L 357.5 217 Z " /><path fill="rgb(254,254,254)" stroke="rgb(254,254,254)" stroke-width="1" opacity="1" d="M 262.5 234 Q 264.8 234.8 264 238.5 L 262 245.5 L 262 265.5 L 264 276.5 L 262 277.5 L 263 273.5 L 261 273.5 Q 263.5 272 262 266.5 L 261 266.5 L 260.5 268 L 260 266.5 L 261 265.5 L 261 245.5 L 260.5 244 L 262 244.5 Q 263.3 239.8 261 238.5 L 263 238.5 L 262.5 234 Z " /><path fill="rgb(254,254,254)" stroke="rgb(254,254,254)" stroke-width="1" opacity="1" d="M 123.5 243 L 124 252.5 L 123 252.5 L 123.5 243 Z " /><path fill="rgb(254,254,254)" stroke="rgb(254,254,254)" stroke-width="1" opacity="1" d="M 121.5 249 L 122 252.5 L 121 252.5 L 121.5 249 Z " /><path fill="rgb(254,254,254)" stroke="rgb(254,254,254)" stroke-width="1" opacity="1" d="M 121.5 258 L 122 261.5 L 121 261.5 L 121.5 258 Z " /><path fill="rgb(254,254,254)" stroke="rgb(254,254,254)" stroke-width="1" opacity="1" d="M 123.5 258 L 124 268.5 L 127 281.5 L 125 282.5 L 126 279.5 L 124 279.5 L 125 275.5 L 123 275.5 Q 125.3 274.2 124 269.5 L 123 269.5 L 122.5 271 L 122 269.5 L 123 268.5 L 123.5 258 Z " /><path fill="rgb(254,254,254)" stroke="rgb(254,254,254)" stroke-width="1" opacity="1" d="M 156.5 263 L 157.5 268 L 159 267.5 L 158 270.5 L 159 272.5 L 158 272.5 Q 154.9 268.9 156.5 263 Z " /><path fill="rgb(254,254,254)" stroke="rgb(254,254,254)" stroke-width="1" opacity="1" d="M 298.5 272 L 298 273.5 Q 300.2 280.8 305.5 285 L 308 286.5 L 307.5 288 L 311.5 291 L 313 290.5 L 312.5 292 L 316.5 294 L 318 293.5 L 317.5 295 L 320.5 296 L 322 295.5 L 319.5 297 Q 309.6 292.4 303 284.5 L 297 273.5 L 298.5 272 Z " /><path fill="rgb(254,254,254)" stroke="rgb(254,254,254)" stroke-width="1" opacity="1" d="M 160.5 273 L 160 274.5 L 162 279 L 164 279.5 L 163 280.5 L 166 283.5 L 171.5 290 L 174.5 292 L 176 291.5 Q 174.3 294.8 172.5 291 L 163 282.5 L 159 274.5 L 160.5 273 Z " /><path fill="rgb(254,254,254)" stroke="rgb(254,254,254)" stroke-width="1" opacity="1" d="M 264.5 278 Q 270.2 299.3 284.5 312 Q 299.5 326.5 324 331.5 L 319.5 333 L 319.5 331 L 311.5 329 L 310 329.5 L 310.5 328 Q 298.9 325.1 291.5 318 L 290 318.5 L 290.5 317 L 286.5 314 L 285 314.5 L 285.5 313 L 276 305.5 L 277 304.5 L 274 301.5 L 272.5 299 L 271 298.5 Q 273.5 297 270 295.5 L 266 284.5 L 263 281.5 L 264.5 278 Z " /><path fill="rgb(254,254,254)" stroke="rgb(254,254,254)" stroke-width="1" opacity="1" d="M 127.5 283 Q 134 302.5 148.5 314 L 161 322.5 L 159 323.5 L 159.5 322 L 154.5 319 L 153 319.5 L 150.5 316 L 149 316.5 L 149.5 315 L 143.5 310 Q 142.3 312.3 141 309.5 L 142 308.5 L 137.5 304 L 136 303.5 L 137 302.5 L 134 299.5 L 128 288.5 L 127.5 285 L 126 285.5 L 127.5 283 Z " /><path fill="rgb(254,254,254)" stroke="rgb(254,254,254)" stroke-width="1" opacity="1" d="M 369.5 287 L 374.5 288 L 376 287.5 L 375.5 289 L 383 293.5 Q 380.3 295.3 384.5 297 L 386 297.5 Q 383.5 299 387 300.5 L 389 304.5 Q 387.3 310.8 390 312.5 L 384.5 319 L 383 319.5 L 383.5 321 L 381.5 321 L 372.5 326 L 372.5 325 L 387 315.5 Q 389.3 312.3 388 305.5 L 380 292 L 374.5 289 L 370.5 289 L 353.5 298 L 353.5 297 L 370 288.5 L 369.5 287 Z " /><path fill="rgb(254,254,254)" stroke="rgb(254,254,254)" stroke-width="1" opacity="1" d="M 231.5 288 L 238.5 289 L 246 296.5 L 252 306.5 Q 249.5 308 251 313.5 L 249 315.5 Q 251.8 317.3 247.5 319 Q 245.7 316.3 244 320.5 L 243.5 322 L 241.5 322 L 225 329.5 L 225.5 331 L 222.5 330 L 218 331.5 L 218.5 333 L 214.5 332 L 214.5 334 L 208 332.5 Q 234.6 329.6 249 314.5 L 250 307.5 Q 246.4 296.6 238.5 290 L 231.5 289 L 220.5 296 L 210.5 300 L 193.5 301 L 186 298.5 L 188.5 298 Q 194.3 301.7 205.5 300 L 205.5 299 L 204 298.5 L 205.5 298 L 210.5 299 L 210.5 297 L 213.5 298 L 217 296.5 L 216.5 295 L 218.5 296 L 221 294.5 L 220.5 293 Q 222 295.5 223.5 292 L 231.5 288 Z " /><path fill="rgb(254,254,254)" stroke="rgb(254,254,254)" stroke-width="1" opacity="1" d="M 176.5 293 L 185 297.5 L 183.5 298 L 177.5 295 L 176.5 293 Z " /><path fill="rgb(254,254,254)" stroke="rgb(254,254,254)" stroke-width="1" opacity="1" d="M 322.5 297 L 326.5 298 L 328 297.5 L 327.5 299 L 333.5 298 L 333.5 299 L 332 299.5 L 344 300.5 L 332.5 301 L 324.5 299 L 322.5 297 Z " /><path fill="rgb(254,254,254)" stroke="rgb(254,254,254)" stroke-width="1" opacity="1" d="M 349.5 298 L 352 298.5 L 345.5 300 L 345.5 299 L 349.5 298 Z " /><path fill="rgb(254,254,254)" stroke="rgb(254,254,254)" stroke-width="1" opacity="1" d="M 166.5 325 L 181 330.5 L 177.5 332 L 177.5 330 L 174.5 331 L 174.5 329 L 166.5 326 L 166.5 325 Z " /><path fill="rgb(254,254,254)" stroke="rgb(254,254,254)" stroke-width="1" opacity="1" d="M 369.5 326 L 372 327.5 L 370.5 327 L 366 328.5 L 366.5 330 L 364 328.5 L 369.5 326 Z " /><path fill="rgb(254,254,254)" stroke="rgb(254,254,254)" stroke-width="1" opacity="1" d="M 360.5 329 L 364 330.5 L 362.5 330 L 360 330.5 L 360.5 332 L 357.5 331 L 353.5 332 L 353.5 331 L 360.5 329 Z " /><path fill="rgb(254,254,254)" stroke="rgb(254,254,254)" stroke-width="1" opacity="1" d="M 182.5 331 L 193 332.5 L 185.5 334 L 185.5 332 Q 181.5 332.8 182.5 331 Z " /><path fill="rgb(254,254,254)" stroke="rgb(254,254,254)" stroke-width="1" opacity="1" d="M 325.5 332 L 346 333.5 L 332.5 334 L 330.5 335 L 330.5 334 L 332 333.5 L 325.5 333 L 325.5 332 Z " /><path fill="rgb(254,254,254)" stroke="rgb(254,254,254)" stroke-width="1" opacity="1" d="M 347.5 332 L 352 332.5 L 347.5 333 L 347.5 332 Z " /><path fill="rgb(254,254,254)" stroke="rgb(254,254,254)" stroke-width="1" opacity="1" d="M 194.5 333 L 207 333.5 L 194.5 334 L 194.5 333 Z " /><path fill="rgb(255,255,255)" stroke="rgb(255,255,255)" stroke-width="1" opacity="1" d="M 191.5 179 L 209.5 179 Q 210.8 181.3 215.5 180 L 233.5 186 L 245 193.5 L 244.5 195 L 246.5 194 L 250.5 199 L 248 197.5 Q 251.4 200.6 250.5 208 L 251.5 200 L 252 207.5 L 249 209 L 248 212.5 L 250 212.5 L 246 214.5 L 246.5 216 L 248 215.5 L 243 218.5 L 243.5 220 L 245 219.5 L 236.5 226 L 230.5 226 L 212.5 216 Q 204.2 213.3 191.5 215 Q 177.5 218 169.5 227 L 170.5 224 L 165 228.5 L 165.5 230 L 168 228.5 L 164.5 232 Q 163.3 229.8 162 232.5 L 161 235.5 L 163 235.5 Q 156 244.5 157 261.5 Q 159.3 262.8 158 267.5 L 162 276.5 L 160 276.5 L 162.5 281 Q 164.2 278.3 166 282.5 L 163 281.5 L 165.5 285 L 166.5 284 L 171.5 289 L 189.5 298 L 205.5 299 L 216.5 296 L 231.5 287 L 236.5 287 L 246 295.5 L 243 294.5 L 246.5 300 L 247 298.5 L 246.5 297 L 249 300.5 L 247 300.5 L 249.5 307 Q 250.8 304.8 252 307.5 L 251.5 313 L 250.5 307 L 249 314.5 L 251 314.5 L 247 316.5 L 248 317.5 L 244.5 321 L 242.5 320 L 241.5 323 Q 223.9 335.4 193.5 335 L 172.5 330 Q 161.6 326.4 154 319.5 L 154.5 318 L 152.5 319 L 137 304.5 L 139 304.5 L 137.5 302 Q 135.7 304.8 134 300.5 L 136 300.5 L 133.5 296 L 133 297.5 L 133.5 299 L 131 295.5 L 133 295.5 L 130.5 290 L 129.5 292 L 128 289.5 L 130 289.5 L 128.5 285 L 127.5 288 L 123 274.5 L 121 253.5 L 122 252.5 L 123 237.5 L 126.5 229 L 128 229.5 L 127.5 227 L 126 227.5 L 128.5 223 L 129.5 225 L 130 222.5 L 129 220.5 L 132 219.5 L 131 217.5 L 134 216.5 L 138 209.5 L 135 210.5 Q 142.9 199.9 154.5 193 L 156.5 194 L 157.5 191 L 174.5 183 L 191.5 179 Z M 192 180 L 192 181 L 210 181 L 192 180 Z M 186 181 L 186 182 L 191 182 L 186 181 Z M 211 181 L 211 182 L 215 182 L 211 181 Z M 182 182 L 182 183 L 185 183 L 182 182 Z M 217 182 L 217 183 L 219 183 L 217 182 Z M 178 183 L 178 184 L 181 184 L 178 183 Z M 220 183 L 220 184 L 223 184 L 220 183 Z M 175 184 L 175 185 L 177 185 L 175 184 Z M 224 184 L 224 185 L 226 185 L 224 184 Z M 227 185 L 227 186 L 229 186 L 227 185 Z M 170 186 L 170 187 L 172 187 L 170 186 Z M 192 213 L 192 214 L 199 214 L 192 213 Z M 201 213 L 201 214 L 209 214 L 201 213 Z M 188 214 L 188 215 L 191 215 L 188 214 Z M 211 214 L 211 215 L 213 215 L 211 214 Z M 185 215 L 185 216 L 187 216 L 185 215 Z M 214 215 L 214 216 L 216 216 L 214 215 Z M 231 224 L 231 225 L 237 225 L 231 224 Z M 127 230 L 126 233 L 127 233 L 127 230 Z M 126 233 L 125 237 L 126 237 L 126 233 Z M 125 237 L 124 242 L 125 242 L 125 237 Z M 158 242 L 156 246 L 157 251 L 158 246 L 158 242 Z M 124 243 L 123 253 L 124 253 L 124 243 Z M 156 251 L 155 262 L 156 262 L 156 251 Z M 124 258 L 123 269 L 124 269 L 124 258 Z M 157 263 L 156 268 L 157 268 L 157 263 Z M 158 268 L 157 271 L 158 271 L 158 268 Z M 125 269 L 124 275 L 125 275 L 125 269 Z M 126 275 L 125 279 L 126 279 L 126 275 Z M 127 279 L 126 282 L 127 282 L 127 279 Z M 232 288 L 232 289 L 237 289 L 232 288 Z M 215 297 L 215 298 L 217 298 L 215 297 Z M 187 298 L 187 299 L 189 299 L 187 298 Z M 212 298 L 212 299 L 214 299 L 212 298 Z M 190 299 L 190 300 L 193 300 L 190 299 Z M 207 299 L 207 300 L 211 300 L 207 299 Z M 194 300 L 194 301 L 206 301 L 194 300 Z M 229 327 L 229 328 L 231 328 L 229 327 Z M 173 328 L 173 329 L 175 329 L 173 328 Z M 226 328 L 226 329 L 228 329 L 226 328 Z M 176 329 L 176 330 L 178 330 L 176 329 Z M 223 329 L 223 330 L 225 330 L 223 329 Z M 179 330 L 179 331 L 181 331 L 179 330 Z M 219 330 L 219 331 L 222 331 L 219 330 Z M 183 331 L 183 332 L 186 332 L 183 331 Z M 215 331 L 215 332 L 218 332 L 215 331 Z M 187 332 L 187 333 L 193 333 L 187 332 Z M 209 332 L 209 333 L 214 333 L 209 332 Z M 195 333 L 195 334 L 207 334 L 195 333 Z " /><path fill="rgb(255,255,255)" stroke="rgb(255,255,255)" stroke-width="1" opacity="1" d="M 329.5 179 L 348.5 179 L 357.5 181 Q 375.6 185.9 388 196.5 L 386.5 196 L 385 196.5 L 388.5 203 L 389 199.5 L 388.5 198 L 391 204.5 L 389.5 210 L 388.5 205 L 387 211.5 L 389 211.5 L 386.5 215 L 387 213.5 L 386.5 212 L 383 217.5 L 386 216.5 L 377.5 225 L 368.5 226 L 351.5 216 Q 342.8 213.2 329.5 215 Q 313.5 219 304.5 230 Q 302.7 227.3 301 231.5 L 300 234.5 L 302 234.5 L 299 235.5 L 300 237.5 L 298 237.5 L 297 240.5 L 299 240.5 L 296 247.5 L 296 265.5 L 300 275.5 L 298 275.5 L 301.5 282 L 302 280.5 L 301.5 279 L 306 284.5 L 303 283.5 L 306.5 288 L 308.5 287 Q 319.2 299.8 343.5 299 L 354.5 296 L 367.5 288 L 374.5 287 L 382 292.5 L 380 292.5 L 381.5 295 Q 383.3 292.3 385 296.5 L 383 296.5 L 384.5 299 Q 385.8 296.8 387 299.5 L 385 299.5 L 388 305.5 L 388 313.5 L 387 315.5 L 389 315.5 Q 370.4 334.9 332.5 335 L 316.5 332 L 296.5 323 L 277 306.5 L 279 306.5 L 277.5 304 L 276.5 305 L 273 301.5 L 272 299.5 L 274 299.5 L 272.5 297 Q 271.3 299.3 270 296.5 L 272 296.5 L 267.5 287 L 266.5 289 L 264 283.5 L 266 283.5 L 265.5 281 Q 264.3 283.2 263 280.5 L 260 265.5 L 260 245.5 L 263.5 233 L 265 233.5 L 264.5 231 L 263 231.5 L 266.5 224 L 267.5 226 L 269 221.5 L 267 221.5 L 269.5 218 L 271 218.5 L 270 216.5 L 273 215.5 L 272.5 214 L 271 214.5 L 274.5 210 Q 276.3 212.8 278 208.5 L 277.5 207 L 275 208.5 L 285 199.5 L 284.5 201 L 287 199.5 L 286 198.5 L 289.5 195 Q 305.7 183.2 329.5 179 Z M 331 180 L 331 181 L 348 181 L 331 180 Z M 325 181 L 325 182 L 329 182 L 325 181 Z M 350 181 L 350 182 L 354 182 L 350 181 Z M 320 182 L 320 183 L 323 183 L 320 182 Z M 355 182 L 355 183 L 358 183 L 355 182 Z M 317 183 L 317 184 L 319 184 L 317 183 Z M 359 183 L 359 184 L 361 184 L 359 183 Z M 314 184 L 314 185 L 316 185 L 314 184 Z M 362 184 L 362 185 L 364 185 L 362 184 Z M 311 185 L 311 186 L 313 186 L 311 185 Z M 365 185 L 365 186 L 367 186 L 365 185 Z M 368 186 L 368 187 L 370 187 L 368 186 Z M 306 187 L 306 188 L 308 188 L 306 187 Z M 275 211 L 273 214 L 275 213 L 275 211 Z M 330 213 L 330 214 L 337 214 L 330 213 Z M 340 213 L 340 214 L 348 214 L 340 213 Z M 327 214 L 327 215 L 329 215 L 327 214 Z M 349 214 L 349 215 L 352 215 L 349 214 Z M 324 215 L 324 216 L 326 216 L 324 215 Z M 370 224 L 370 225 L 376 225 L 370 224 Z M 266 228 L 265 231 L 266 231 L 266 228 Z M 264 235 L 263 239 L 264 239 L 264 235 Z M 263 239 L 262 245 L 263 245 L 263 239 Z M 297 241 L 296 244 L 297 244 L 297 241 Z M 296 244 L 295 247 L 296 247 L 296 244 Z M 262 245 L 261 266 L 262 266 L 262 245 Z M 295 247 L 294 266 L 295 266 L 295 247 Z M 263 266 L 262 273 L 263 273 L 263 266 Z M 296 266 L 295 270 L 296 270 L 296 266 Z M 264 273 L 263 277 L 264 277 L 264 273 Z M 265 278 L 264 281 L 265 281 L 265 278 Z M 267 284 L 266 287 L 267 287 L 267 284 Z M 308 288 L 309 290 L 310 290 L 308 288 Z M 371 288 L 371 289 L 375 289 L 371 288 Z M 368 289 L 368 290 L 370 290 L 368 289 Z M 378 290 L 379 292 L 380 292 L 378 290 Z M 325 298 L 325 299 L 327 299 L 325 298 Z M 350 298 L 350 299 L 352 299 L 350 298 Z M 328 299 L 328 300 L 332 300 L 328 299 Z M 346 299 L 346 300 L 349 300 L 346 299 Z M 275 300 L 274 302 L 276 303 L 275 300 Z M 333 300 L 333 301 L 344 301 L 333 300 Z M 309 327 L 309 328 L 311 328 L 309 327 Z M 367 327 L 367 328 L 369 328 L 367 327 Z M 314 329 L 314 330 L 316 330 L 314 329 Z M 361 329 L 361 330 L 363 330 L 361 329 Z M 317 330 L 317 331 L 320 331 L 317 330 Z M 358 330 L 358 331 L 360 331 L 358 330 Z M 321 331 L 321 332 L 324 332 L 321 331 Z M 354 331 L 354 332 L 357 332 L 354 331 Z M 326 332 L 326 333 L 332 333 L 326 332 Z M 348 332 L 348 333 L 352 333 L 348 332 Z M 333 333 L 333 334 L 346 334 L 333 333 Z " /><path fill="rgb(255,255,255)" stroke="rgb(255,255,255)" stroke-width="1" opacity="1" d="M 134.5 212 L 133.5 214 L 134.5 212 Z " /><path fill="rgb(255,255,255)" stroke="rgb(255,255,255)" stroke-width="1" opacity="1" d="M 303.5 231 L 302.5 233 L 303.5 231 Z " /><path fill="rgb(255,255,255)" stroke="rgb(255,255,255)" stroke-width="1" opacity="1" d="M 389.5 305 L 390 311.5 L 389 311.5 L 389.5 305 Z " /></svg>